<svg version="1.1" id="Layer_1" xmlns="http://www.w3.org/2000/svg" xmlns:xlink="http://www.w3.org/1999/xlink" x="0px" y="0px"
	 width="100%" viewBox="0 0 440 338" enable-background="new 0 0 440 338" xml:space="preserve">
<path fill="#FFFFFF" opacity="1.000000" stroke="none" 
	d="
M316.000000,339.000000 
	C210.666687,339.000000 105.833374,339.000000 1.000042,339.000000 
	C1.000028,226.333374 1.000028,113.666748 1.000014,1.000087 
	C147.666611,1.000058 294.333221,1.000058 440.999878,1.000029 
	C440.999908,113.666588 440.999908,226.333176 440.999939,338.999878 
	C399.500000,339.000000 358.000000,339.000000 316.000000,339.000000 
M160.999924,160.999939 
	C160.999924,160.999939 160.943619,161.018738 160.796524,161.672180 
	C161.512802,162.499802 162.229080,163.327408 163.178040,164.774475 
	C166.754501,168.217133 170.330978,171.659790 174.161774,175.695999 
	C175.416153,176.520691 176.670547,177.345383 178.221436,178.778442 
	C180.487427,180.018478 182.753418,181.258530 185.513947,182.912628 
	C189.310699,184.699799 193.107437,186.486969 197.363510,188.490356 
	C197.989136,185.819962 198.431244,183.932922 199.060715,181.366226 
	C199.446182,179.125610 199.831650,176.884995 200.744980,174.152939 
	C200.794327,173.443604 200.843689,172.734268 201.186691,171.209274 
	C201.090088,170.143784 200.993469,169.078278 201.113571,167.393539 
	C201.411362,165.653625 201.709152,163.913712 202.555206,161.939621 
	C202.634186,161.590652 202.713181,161.241684 202.984634,160.078598 
	C203.062439,158.958450 203.140259,157.838287 203.567902,156.109695 
	C203.305176,153.461273 203.042450,150.812851 202.942673,147.353531 
	C202.682037,144.496140 202.977020,141.425171 201.986526,138.848328 
	C201.181534,136.754044 201.023788,132.798019 196.180923,134.251572 
	C194.836945,136.181396 193.492966,138.111206 191.684402,140.354721 
	C191.420807,140.832886 191.157211,141.311050 190.303421,142.072800 
	C189.277435,143.692337 188.251465,145.311874 186.765076,147.259384 
	C186.477707,147.729538 186.190338,148.199707 185.348511,148.943665 
	C184.895782,149.335739 184.443069,149.727814 183.246109,149.568787 
	C186.382797,142.482315 189.752838,135.487640 192.587708,128.282425 
	C195.196716,121.651199 199.369888,117.272369 206.526367,115.816330 
	C213.795425,114.337395 218.831009,110.543434 219.278946,102.428047 
	C219.388290,100.446564 219.947357,98.481911 219.973175,96.505249 
	C220.062424,89.671867 220.007553,82.836601 220.007553,76.002052 
	C220.651154,75.964996 221.294739,75.927948 221.938339,75.890892 
	C222.667099,85.552170 223.395859,95.213448 223.796509,105.619919 
	C223.249054,108.720520 222.701599,111.821121 221.960785,115.694008 
	C219.436035,123.659767 219.014572,131.696457 220.977859,140.690842 
	C221.632172,149.458069 222.286469,158.225296 222.777481,167.801468 
	C222.509949,170.411072 222.242401,173.020691 221.974869,175.630295 
	C221.547607,175.728561 221.120331,175.826828 220.693069,175.925095 
	C219.538269,166.293488 217.416687,157.037003 211.596039,149.178040 
	C208.613037,162.608490 205.666946,175.872818 202.494156,190.157806 
	C210.815674,190.831940 219.236420,191.514114 227.799576,192.207825 
	C227.915619,189.914581 227.991440,188.925873 228.011703,187.936035 
	C228.196228,178.921417 227.479874,169.768478 228.848343,160.938278 
	C229.832504,154.587891 230.321457,148.676422 228.511765,141.593781 
	C226.788284,129.983597 225.618820,118.394997 229.239212,107.064293 
	C230.207672,115.784569 231.008102,124.501869 232.218613,133.161850 
	C232.715363,136.715591 233.890305,140.382614 239.006271,139.839798 
	C239.566803,140.603867 240.127335,141.367935 240.687866,142.132004 
	C241.179123,141.889069 241.670395,141.646133 242.161652,141.403198 
	C241.529541,139.931442 240.897430,138.459671 239.945160,136.434372 
	C240.267593,134.993393 240.590027,133.552429 241.439362,131.735046 
	C241.599304,131.130066 241.759247,130.525085 241.988159,129.190292 
	C242.505127,128.502502 243.022110,127.814713 243.926575,127.054138 
	C244.256866,126.856964 244.587158,126.659782 245.598343,126.017014 
	C247.008255,127.003792 249.105392,127.684769 249.704941,129.032150 
	C251.891449,133.945892 247.945023,137.228394 245.204514,140.996552 
	C244.626801,141.328033 244.049088,141.659515 243.471375,141.991013 
	C244.056824,142.289764 244.642258,142.588516 245.932602,142.856705 
	C247.595200,143.695206 249.257812,144.533691 251.114578,145.836700 
	C251.563873,146.329559 252.013168,146.822403 252.745010,147.902878 
	C253.704147,149.313858 254.663269,150.724823 255.745483,152.681229 
	C255.964951,153.191071 256.184387,153.700912 256.627777,154.854614 
	C257.322906,156.240463 258.018036,157.626312 258.806519,159.595108 
	C259.044891,160.123611 259.283264,160.652130 259.721680,161.905273 
	C260.271362,163.022491 260.821045,164.139709 261.429016,165.691864 
	C261.742981,166.331665 262.056946,166.971466 262.609680,168.372238 
	C263.925110,170.312012 265.240570,172.251785 266.543457,174.173096 
	C276.091339,169.375824 282.197327,161.933990 287.183655,152.442276 
	C289.201538,147.317657 291.219391,142.193024 293.684998,136.602051 
	C293.764709,135.750000 293.844421,134.897934 294.452637,133.465973 
	C296.769562,123.802963 297.198059,114.024811 295.452301,104.273613 
	C287.850555,61.812695 250.580948,34.950100 207.889786,42.116943 
	C160.417786,50.086369 134.334290,99.098053 150.258240,142.603912 
	C151.143524,144.453949 152.028793,146.303986 152.978943,148.861099 
	C155.294525,152.648926 157.610107,156.436737 160.074493,160.758270 
	C160.380676,160.858475 160.686874,160.958679 160.999924,160.999939 
M254.105637,161.144058 
	C252.852188,158.967239 250.857086,157.828400 249.202011,160.043488 
	C247.668869,162.095383 247.167389,164.918121 245.981552,168.092789 
	C245.991028,169.068756 246.000488,170.044739 245.766907,171.423767 
	C245.790726,171.997101 245.814545,172.570419 245.727615,173.894287 
	C245.814392,174.642349 245.901184,175.390396 245.898132,176.644775 
	C245.986145,176.974136 246.074142,177.303482 245.959213,178.474167 
	C246.025406,179.042648 246.091599,179.611130 246.241043,180.652298 
	C246.471878,180.887558 246.746964,181.046097 246.791245,181.746704 
	C244.627594,185.610260 247.590088,185.836380 249.718491,185.079269 
	C253.981583,183.562790 257.991302,181.334061 262.712280,179.181686 
	C263.708984,178.440842 264.705658,177.700012 266.328308,176.493896 
	C265.150909,175.630676 264.234070,174.958511 263.013824,173.625092 
	C262.674072,173.296814 262.334351,172.968521 261.913361,172.056183 
	C261.079865,170.993195 260.246338,169.930191 259.219299,168.294098 
	C258.823151,167.867798 258.426971,167.441513 257.986176,166.412872 
	C257.188110,165.555984 256.390015,164.699112 255.504913,163.231567 
	C255.111526,162.771820 254.718140,162.312073 254.105637,161.144058 
M156.831665,235.476059 
	C156.682266,235.246155 156.478943,235.083725 156.102219,234.139435 
	C156.177765,232.564407 156.253326,230.989380 156.325058,229.494034 
	C158.598129,229.211090 160.340744,228.994171 162.235809,228.758286 
	C162.130676,226.970184 162.043686,225.490601 162.541229,224.000824 
	C163.013351,223.712418 163.485489,223.424011 164.862869,223.281006 
	C167.106857,223.281006 169.350861,223.281006 171.539185,223.281006 
	C171.539185,219.456757 171.539185,216.382095 171.539185,213.155304 
	C160.958633,213.155304 150.688202,213.155304 139.202667,213.155304 
	C140.277802,214.816330 140.886978,216.727814 141.672592,216.803314 
	C145.084778,217.131180 145.072281,219.348129 145.055801,221.783051 
	C145.035629,224.762390 145.079651,227.742233 145.050446,230.721405 
	C145.025299,233.287109 145.820572,236.340759 141.394287,236.176422 
	C140.874527,236.157135 140.273544,238.325272 139.586960,239.731903 
	C150.817932,239.731903 161.061066,239.731903 171.339844,239.731903 
	C171.339844,236.243317 171.339844,233.043869 171.339844,229.666519 
	C168.842865,229.666519 166.733109,229.666519 164.292862,229.666519 
	C164.664230,235.167801 161.947495,236.919144 156.831665,235.476059 
M261.048767,241.318527 
	C257.890839,247.919937 252.674393,243.958008 248.243881,243.636093 
	C247.922913,244.599365 247.584244,245.367783 247.420776,246.171814 
	C247.233765,247.091614 247.202438,248.043045 247.088226,249.125214 
	C248.933655,249.656815 250.495178,250.200836 252.098770,250.553436 
	C263.324890,253.021729 271.065155,246.866547 271.175751,235.378281 
	C271.224640,230.304062 271.183990,225.228973 271.183990,220.429398 
	C266.217957,219.966110 261.238922,219.345734 256.241058,219.083130 
	C252.004745,218.860535 248.374878,220.289307 246.211487,224.263138 
	C245.263657,226.004150 244.424683,227.804413 243.701447,229.248047 
	C246.195953,237.995392 251.526703,241.860687 260.565094,239.264389 
	C260.623840,239.247513 260.924530,240.072922 261.048767,241.318527 
M230.465546,219.004089 
	C223.851395,219.525528 217.237228,220.046967 209.546768,220.653259 
	C210.526443,221.983490 211.273209,222.997498 212.020004,224.011459 
	C212.856812,225.147659 214.095947,226.177719 214.430496,227.446365 
	C214.866852,229.100967 214.863739,230.993835 214.561661,232.697617 
	C213.696945,237.574432 217.494385,243.645676 210.955551,247.179321 
	C210.617584,247.361954 211.012482,248.900726 211.066208,249.808868 
	C216.962967,249.808868 222.420868,249.808868 228.508240,249.808868 
	C228.020752,248.327942 227.834671,246.351746 227.256683,246.229568 
	C222.543793,245.233322 224.208633,241.956238 224.234695,238.951431 
	C226.092773,239.331390 227.679794,239.808456 229.297272,239.959518 
	C235.383972,240.527878 241.891739,235.161179 241.937027,229.631958 
	C241.966431,226.041550 236.181549,220.300110 230.465546,219.004089 
M182.522934,219.980042 
	C179.881409,219.980042 177.239883,219.980042 174.198181,219.980042 
	C173.913925,226.514938 182.554260,223.105988 182.382263,228.981567 
	C179.787750,231.876434 176.697708,235.324173 172.750900,239.727859 
	C178.502487,239.727859 182.419296,239.727859 186.331360,239.727859 
	C186.331360,237.123749 186.331360,234.812241 186.331360,232.500732 
	C187.117676,232.501190 187.903992,232.501633 188.690308,232.502090 
	C188.690308,234.938049 188.690308,237.374008 188.690308,239.799179 
	C194.980713,239.799179 200.770630,239.799179 206.723694,239.799179 
	C207.732910,233.387680 198.991989,235.693558 198.934204,230.249908 
	C201.632370,227.334305 204.504089,224.231186 208.267654,220.164352 
	C202.416931,220.164352 198.459091,220.164352 194.281219,220.164352 
	C194.576797,222.543793 194.845093,224.703598 195.113388,226.863403 
	C194.252121,226.946320 193.390854,227.029251 192.529587,227.112183 
	C192.328705,224.818710 192.127823,222.525253 191.904877,219.980042 
	C189.111588,219.980042 186.296494,219.980042 182.522934,219.980042 
M277.081970,223.251968 
	C278.239563,224.575211 280.626648,226.337814 280.338440,227.144409 
	C279.191071,230.355255 283.092651,235.367157 277.105988,236.959076 
	C276.873169,237.020981 277.076294,238.722305 277.076294,239.828262 
	C282.848480,239.828262 288.272034,239.828262 294.272522,239.828262 
	C293.918030,238.388214 293.760071,236.295837 293.336029,236.240433 
	C286.387604,235.332672 292.495148,230.180557 290.488068,227.763809 
	C292.532379,227.176926 294.570770,226.568085 296.624603,226.016724 
	C297.232208,225.853592 297.883301,225.852585 298.705444,225.754501 
	C298.705444,223.850586 298.705444,222.126801 298.705444,220.408508 
	C292.030273,220.267670 285.587769,220.056488 279.147064,220.101105 
	C278.427277,220.106094 277.717560,221.563065 277.081970,223.251968 
M231.789612,187.106400 
	C231.619507,188.306473 231.449402,189.506531 231.197647,191.282578 
	C234.986496,190.462921 238.155991,189.777237 241.741104,189.001648 
	C240.682861,183.438568 239.701599,178.280167 238.720337,173.121750 
	C238.034210,173.006622 237.348099,172.891495 236.661987,172.776352 
	C235.078430,177.282181 233.494873,181.788025 231.789612,187.106400 
z"/>
<path fill="#352984" opacity="1.000000" stroke="none" 
	d="
M250.920410,145.372192 
	C249.257812,144.533691 247.595200,143.695206 245.637115,142.607513 
	C245.520111,141.899963 245.698593,141.441589 245.877075,140.983215 
	C247.945023,137.228394 251.891449,133.945892 249.704941,129.032150 
	C249.105392,127.684769 247.008255,127.003792 244.991974,126.243584 
	C244.103439,126.689079 243.821259,126.908005 243.539093,127.126930 
	C243.022110,127.814713 242.505127,128.502502 241.700073,129.658218 
	C241.245468,130.787918 241.078964,131.449677 240.912445,132.111450 
	C240.590027,133.552429 240.267593,134.993393 240.046143,137.045929 
	C239.760925,138.152206 239.374725,138.646912 238.988525,139.141617 
	C233.890305,140.382614 232.715363,136.715591 232.218613,133.161850 
	C231.008102,124.501869 230.207672,115.784569 229.239212,107.064293 
	C225.618820,118.394997 226.788284,129.983597 228.364807,142.431396 
	C227.147827,148.855835 226.077805,154.442673 224.598984,159.854065 
	C224.181747,148.490540 224.173309,137.302490 224.398300,125.768509 
	C224.462692,118.573311 224.293655,111.724014 224.124603,104.874725 
	C223.395859,95.213448 222.667099,85.552170 221.938339,75.890892 
	C221.294739,75.927948 220.651154,75.964996 220.007553,76.002052 
	C220.007553,82.836601 220.062424,89.671867 219.973175,96.505249 
	C219.947357,98.481911 219.388290,100.446564 219.278946,102.428047 
	C218.831009,110.543434 213.795425,114.337395 206.526367,115.816330 
	C199.369888,117.272369 195.196716,121.651199 192.587708,128.282425 
	C189.752838,135.487640 186.382797,142.482315 183.644699,149.812271 
	C184.043289,150.055756 184.056274,149.973022 183.794586,149.692627 
	C183.052170,149.931168 182.571426,150.450089 181.742920,151.009094 
	C181.164307,151.083572 180.933472,151.117966 180.316620,151.005554 
	C179.284546,150.941101 178.638489,151.023422 177.992416,151.105743 
	C179.004333,151.748856 180.016251,152.391983 181.026306,153.007050 
	C181.024429,152.979019 180.968414,152.974472 180.686829,153.237595 
	C181.262955,154.355606 182.120667,155.210480 183.204773,156.418091 
	C184.131454,156.517792 184.831741,156.264740 185.661285,156.205353 
	C186.349930,156.934021 186.909286,157.469040 187.478577,158.619110 
	C188.177704,159.158081 188.866882,159.082001 189.549042,159.039429 
	C189.541992,159.072952 189.553528,159.072159 189.094345,159.169556 
	C189.419556,160.504181 190.203949,161.741409 190.999863,162.988007 
	C191.011368,162.997375 191.035980,163.016541 191.079666,163.328262 
	C192.108124,164.708572 193.092880,165.777145 193.942947,167.104889 
	C193.501266,167.596420 193.194305,167.828796 192.547333,167.991684 
	C187.604919,165.223969 183.002518,162.525742 178.184418,159.548859 
	C172.982376,156.431381 167.996033,153.592545 162.982086,150.506500 
	C162.153183,150.038269 161.351868,149.817245 160.550537,149.596237 
	C160.468140,149.907913 160.385742,150.219574 160.303345,150.531250 
	C160.848007,150.682693 161.392654,150.834152 162.054810,151.313461 
	C167.120621,154.746445 172.068954,157.851562 177.259186,161.195923 
	C182.654022,164.986618 187.806946,168.538101 192.828217,172.312973 
	C192.407867,172.721939 192.119186,172.907501 191.465790,173.056458 
	C183.538773,169.956421 175.976501,166.893021 168.159912,163.560089 
	C165.584946,162.533279 163.264282,161.776016 160.943619,161.018738 
	C160.943619,161.018738 160.999924,160.999939 160.985901,160.742065 
	C160.623154,160.397644 160.274414,160.311096 159.925690,160.224564 
	C157.610107,156.436737 155.294525,152.648926 153.143539,148.230896 
	C154.990402,147.815903 156.672684,148.031097 158.354950,148.246307 
	C158.504318,148.023178 158.653671,147.800064 158.803024,147.576950 
	C155.946503,145.712082 153.089981,143.847214 150.233444,141.982346 
	C134.334290,99.098053 160.417786,50.086369 207.889786,42.116943 
	C250.580948,34.950100 287.850555,61.812695 295.452301,104.273613 
	C297.198059,114.024811 296.769562,123.802963 293.895203,133.873291 
	C292.728668,134.954391 292.119568,135.628189 291.510468,136.301971 
	C292.086060,136.557449 292.661682,136.812927 293.237274,137.068405 
	C291.219391,142.193024 289.201538,147.317657 286.585724,152.713623 
	C284.627258,153.750763 283.266724,154.516541 281.580811,155.360580 
	C274.627167,158.711533 267.998962,161.984222 261.370728,165.256927 
	C260.821045,164.139709 260.271362,163.022491 259.916901,161.322372 
	C265.754730,156.153595 271.397339,151.567719 277.383728,146.953461 
	C278.751862,146.337967 279.776215,145.750854 280.800537,145.163757 
	C280.381531,144.738602 279.962524,144.313446 279.543488,143.888275 
	C278.701996,144.911621 277.860474,145.934967 276.656952,146.963257 
	C270.434326,150.982834 264.573761,154.997482 258.713196,159.012146 
	C258.018036,157.626312 257.322906,156.240463 256.799530,154.291870 
	C263.084167,147.479279 269.197083,141.229431 275.309998,134.979599 
	C274.980988,134.663223 274.651947,134.346863 274.322937,134.030487 
	C268.089417,140.065598 261.855896,146.100693 255.622375,152.135803 
	C254.663269,150.724823 253.704147,149.313858 252.858261,147.327972 
	C256.868134,141.302277 260.764740,135.851486 264.661346,130.400711 
	C264.289825,130.150024 263.918304,129.899353 263.546783,129.648666 
	C259.337982,134.889847 255.129196,140.131012 250.920410,145.372192 
M203.229126,113.075119 
	C204.786469,112.712440 207.696503,112.335495 207.692841,111.989281 
	C207.654434,108.350113 207.545135,104.604767 206.569656,101.138008 
	C206.207962,99.852562 203.562988,99.098152 201.840271,98.391876 
	C201.449493,98.231674 200.506210,99.217201 199.916183,99.779236 
	C197.095993,102.465668 198.537521,109.602997 203.229126,113.075119 
M221.836273,65.620316 
	C222.196609,63.387451 222.556946,61.154583 222.868042,59.226807 
	C221.479782,58.091667 219.717987,56.651104 218.352081,55.534248 
	C216.687164,56.753834 214.692566,58.214916 213.466492,59.113037 
	C213.957870,61.415676 214.420517,63.583626 214.702118,64.903244 
	C216.842834,65.182472 218.954651,65.457924 221.836273,65.620316 
M207.649445,77.189705 
	C210.248749,74.825531 212.848053,72.461357 215.447372,70.097191 
	C215.105820,69.738663 214.764282,69.380135 214.422745,69.021606 
	C211.786743,70.948303 209.181320,72.918716 206.506226,74.789528 
	C203.778107,76.697433 200.981491,78.507423 198.214874,80.360283 
	C198.447113,80.780182 198.679367,81.200073 198.911621,81.619972 
	C201.624512,80.284332 204.337387,78.948692 207.649445,77.189705 
M194.146896,75.734100 
	C201.301132,71.952835 203.411453,70.027435 205.005554,65.409622 
	C199.435837,69.302002 194.292557,72.896370 189.149261,76.490738 
	C189.276993,76.773087 189.404724,77.055428 189.532455,77.337776 
	C190.842987,76.904633 192.153519,76.471497 194.146896,75.734100 
M250.607803,79.776115 
	C250.242310,77.613182 249.876831,75.450249 249.406845,72.668922 
	C247.413391,74.572563 246.296127,75.639503 244.286865,77.558235 
	C246.572983,78.586693 248.312744,79.369362 250.607803,79.776115 
M177.827240,149.262131 
	C174.490051,146.375793 171.152878,143.489441 167.815689,140.603104 
	C167.513672,140.979385 167.211670,141.355682 166.909653,141.731964 
	C168.470978,143.182983 169.915848,144.793030 171.623749,146.043915 
	C173.660889,147.535965 175.923447,148.720306 177.827240,149.262131 
M159.462845,135.319046 
	C159.101227,134.282196 158.739594,133.245361 158.377960,132.208511 
	C157.959961,132.497925 157.541977,132.787323 157.123978,133.076736 
	C157.709747,133.788589 158.295502,134.500427 159.462845,135.319046 
M149.683746,126.545410 
	C150.432571,127.049667 151.181381,127.553925 151.930206,128.058182 
	C152.104279,127.736809 152.278351,127.415436 152.452423,127.094063 
	C151.671463,126.781235 150.890518,126.468414 149.683746,126.545410 
M288.200653,139.616455 
	C288.204346,139.217926 288.211945,138.819199 288.190887,138.421982 
	C288.190338,138.411240 287.736938,138.406082 287.736145,138.416367 
	C287.706451,138.813614 287.704956,139.212982 288.200653,139.616455 
M284.925385,141.479553 
	C284.778900,141.233444 284.632385,140.987320 284.485901,140.741211 
	C284.350006,140.994949 284.051178,141.313431 284.119751,141.485962 
	C284.204285,141.698730 284.594604,141.790024 284.925385,141.479553 
M165.239288,139.178192 
	C165.409576,139.121674 165.579865,139.065140 165.750153,139.008621 
	C165.578659,138.953598 165.407150,138.898590 165.239288,139.178192 
z"/>
<path fill="#F2930A" opacity="1.000000" stroke="none" 
	d="
M225.007782,160.029510 
	C226.077805,154.442673 227.147827,148.855835 228.359787,142.922333 
	C230.321457,148.676422 229.832504,154.587891 228.848343,160.938278 
	C227.479874,169.768478 228.196228,178.921417 228.011703,187.936035 
	C227.991440,188.925873 227.915619,189.914581 227.799576,192.207825 
	C219.236420,191.514114 210.815674,190.831940 202.494156,190.157806 
	C205.666946,175.872818 208.613037,162.608490 211.596039,149.178040 
	C217.416687,157.037003 219.538269,166.293488 220.693069,175.925095 
	C221.120331,175.826828 221.547607,175.728561 221.974869,175.630295 
	C222.242401,173.020691 222.509949,170.411072 223.145111,167.169891 
	C224.011093,164.368713 224.509430,162.199112 225.007782,160.029510 
z"/>
<path fill="#342A85" opacity="1.000000" stroke="none" 
	d="
M161.956680,224.011002 
	C162.043686,225.490601 162.130676,226.970184 162.235809,228.758286 
	C160.340744,228.994171 158.598129,229.211090 156.325058,229.494034 
	C156.253326,230.989380 156.177765,232.564407 156.109589,234.823227 
	C156.415222,235.614212 156.713501,235.721390 157.011780,235.828583 
	C161.947495,236.919144 164.664230,235.167801 164.292862,229.666519 
	C166.733109,229.666519 168.842865,229.666519 171.339844,229.666519 
	C171.339844,233.043869 171.339844,236.243317 171.339844,239.731903 
	C161.061066,239.731903 150.817932,239.731903 139.586960,239.731903 
	C140.273544,238.325272 140.874527,236.157135 141.394287,236.176422 
	C145.820572,236.340759 145.025299,233.287109 145.050446,230.721405 
	C145.079651,227.742233 145.035629,224.762390 145.055801,221.783051 
	C145.072281,219.348129 145.084778,217.131180 141.672592,216.803314 
	C140.886978,216.727814 140.277802,214.816330 139.202667,213.155304 
	C150.688202,213.155304 160.958633,213.155304 171.539185,213.155304 
	C171.539185,216.382095 171.539185,219.456757 171.539185,223.281006 
	C169.350861,223.281006 167.106857,223.281006 164.389038,222.798233 
	C163.400726,217.180405 162.408173,216.542877 156.304382,217.484741 
	C156.304382,219.535141 156.304382,221.592392 156.304382,224.011002 
	C158.382401,224.011002 160.169540,224.011002 161.956680,224.011002 
z"/>
<path fill="#362C87" opacity="1.000000" stroke="none" 
	d="
M261.080505,240.911774 
	C260.924530,240.072922 260.623840,239.247513 260.565094,239.264389 
	C251.526703,241.860687 246.195953,237.995392 243.701447,229.248047 
	C244.424683,227.804413 245.263657,226.004150 246.211487,224.263138 
	C248.374878,220.289307 252.004745,218.860535 256.241058,219.083130 
	C261.238922,219.345734 266.217957,219.966110 271.183990,220.429398 
	C271.183990,225.228973 271.224640,230.304062 271.175751,235.378281 
	C271.065155,246.866547 263.324890,253.021729 252.098770,250.553436 
	C250.495178,250.200836 248.933655,249.656815 247.088226,249.125214 
	C247.202438,248.043045 247.233765,247.091614 247.420776,246.171814 
	C247.584244,245.367783 247.922913,244.599365 248.243881,243.636093 
	C252.674393,243.958008 257.890839,247.919937 261.080505,240.911774 
M260.359863,233.794083 
	C260.553070,231.334335 261.216431,228.771683 260.711578,226.464706 
	C260.505219,225.521805 257.770172,225.132278 256.185547,224.490997 
	C255.711441,227.387772 255.062454,230.280396 254.993179,233.186813 
	C254.984879,233.535080 258.126160,233.958389 260.359863,233.794083 
z"/>
<path fill="#352B86" opacity="1.000000" stroke="none" 
	d="
M230.867676,219.024475 
	C236.181549,220.300110 241.966431,226.041550 241.937027,229.631958 
	C241.891739,235.161179 235.383972,240.527878 229.297272,239.959518 
	C227.679794,239.808456 226.092773,239.331390 224.234695,238.951431 
	C224.208633,241.956238 222.543793,245.233322 227.256683,246.229568 
	C227.834671,246.351746 228.020752,248.327942 228.508240,249.808868 
	C222.420868,249.808868 216.962967,249.808868 211.066208,249.808868 
	C211.012482,248.900726 210.617584,247.361954 210.955551,247.179321 
	C217.494385,243.645676 213.696945,237.574432 214.561661,232.697617 
	C214.863739,230.993835 214.866852,229.100967 214.430496,227.446365 
	C214.095947,226.177719 212.856812,225.147659 212.020004,224.011459 
	C211.273209,222.997498 210.526443,221.983490 209.546768,220.653259 
	C217.237228,220.046967 223.851395,219.525528 230.867676,219.024475 
M226.603241,234.793671 
	C227.991714,234.233383 230.470306,233.818558 230.568039,233.086029 
	C230.884872,230.711731 230.328461,228.220932 230.108368,225.774979 
	C228.425064,226.053482 225.319778,226.226120 225.289902,226.627701 
	C225.100006,229.178497 225.589294,231.779861 226.603241,234.793671 
z"/>
<path fill="#392F88" opacity="1.000000" stroke="none" 
	d="
M183.002167,219.980042 
	C186.296494,219.980042 189.111588,219.980042 191.904877,219.980042 
	C192.127823,222.525253 192.328705,224.818710 192.529587,227.112183 
	C193.390854,227.029251 194.252121,226.946320 195.113388,226.863403 
	C194.845093,224.703598 194.576797,222.543793 194.281219,220.164352 
	C198.459091,220.164352 202.416931,220.164352 208.267654,220.164352 
	C204.504089,224.231186 201.632370,227.334305 198.934204,230.249908 
	C198.991989,235.693558 207.732910,233.387680 206.723694,239.799179 
	C200.770630,239.799179 194.980713,239.799179 188.690308,239.799179 
	C188.690308,237.374008 188.690308,234.938049 188.690308,232.502090 
	C187.903992,232.501633 187.117676,232.501190 186.331360,232.500732 
	C186.331360,234.812241 186.331360,237.123749 186.331360,239.727859 
	C182.419296,239.727859 178.502487,239.727859 172.750900,239.727859 
	C176.697708,235.324173 179.787750,231.876434 182.382263,228.981567 
	C182.554260,223.105988 173.913925,226.514938 174.198181,219.980042 
	C177.239883,219.980042 179.881409,219.980042 183.002167,219.980042 
z"/>
<path fill="#342A85" opacity="1.000000" stroke="none" 
	d="
M277.042603,222.799316 
	C277.717560,221.563065 278.427277,220.106094 279.147064,220.101105 
	C285.587769,220.056488 292.030273,220.267670 298.705444,220.408508 
	C298.705444,222.126801 298.705444,223.850586 298.705444,225.754501 
	C297.883301,225.852585 297.232208,225.853592 296.624603,226.016724 
	C294.570770,226.568085 292.532379,227.176926 290.488068,227.763794 
	C292.495148,230.180557 286.387604,235.332672 293.336029,236.240433 
	C293.760071,236.295837 293.918030,238.388214 294.272522,239.828262 
	C288.272034,239.828262 282.848480,239.828262 277.076294,239.828262 
	C277.076294,238.722305 276.873169,237.020981 277.105988,236.959076 
	C283.092651,235.367157 279.191071,230.355255 280.338440,227.144409 
	C280.626648,226.337814 278.239563,224.575211 277.042603,222.799316 
z"/>
<path fill="#EC9012" opacity="1.000000" stroke="none" 
	d="
M194.077652,166.845734 
	C193.092880,165.777145 192.108124,164.708572 191.035339,163.271271 
	C190.947311,162.902542 191.172974,162.929688 191.172974,162.929688 
	C191.172974,162.929688 190.988358,162.978638 190.988358,162.978638 
	C190.203949,161.741409 189.419556,160.504181 189.401917,159.427521 
	C193.434570,162.387360 196.700485,165.186646 200.198914,167.996338 
	C200.431427,168.006729 200.896866,168.012787 200.896866,168.012787 
	C200.993469,169.078278 201.090088,170.143784 200.788300,171.870880 
	C200.332291,173.236465 200.274704,173.940414 200.217102,174.644379 
	C199.831650,176.884995 199.446182,179.125610 198.704834,181.815857 
	C197.434616,182.234573 196.520309,182.203644 195.232742,182.141357 
	C189.214645,180.796707 183.569778,179.483398 177.924927,178.170074 
	C176.670547,177.345383 175.416153,176.520691 174.469070,175.351654 
	C180.652100,176.001053 186.527817,176.994812 192.403549,177.988571 
	C192.509583,177.686630 192.615631,177.384689 192.721664,177.082748 
	C184.163818,172.996323 175.605988,168.909897 167.221207,164.592316 
	C167.734268,164.183990 168.074249,164.006805 168.414230,163.829620 
	C175.976501,166.893021 183.538773,169.956421 191.693329,173.315582 
	C193.549164,174.174545 194.812683,174.737732 196.270813,175.476685 
	C196.850113,175.548141 197.234833,175.443848 197.619537,175.339554 
	C197.343811,174.911606 197.068100,174.483658 196.491287,173.974976 
	C195.113419,173.292694 194.036652,172.691132 192.959885,172.089584 
	C187.806946,168.538101 182.654022,164.986618 177.425156,160.938431 
	C177.699509,160.236984 178.049805,160.032242 178.400101,159.827515 
	C183.002518,162.525742 187.604919,165.223969 192.715103,168.246674 
	C193.941956,168.949738 194.661041,169.328339 195.548645,169.910385 
	C196.138763,170.411713 196.560349,170.709579 197.107666,171.218903 
	C197.634430,171.428650 198.035461,171.426971 198.436493,171.425278 
	C198.028931,170.946472 197.621353,170.467667 197.093338,169.749466 
	C196.727371,169.264465 196.481857,169.018875 196.108459,168.502914 
	C195.346268,167.770279 194.711960,167.308014 194.077652,166.845734 
z"/>
<path fill="#3E2E82" opacity="1.000000" stroke="none" 
	d="
M281.906189,155.282318 
	C283.266724,154.516541 284.627258,153.750763 286.339478,152.978455 
	C282.197327,161.933990 276.091339,169.375824 266.543457,174.173096 
	C265.240570,172.251785 263.925110,170.312012 262.802002,167.823273 
	C268.747040,164.155518 274.528961,161.088226 280.218933,157.858856 
	C281.013000,157.408203 281.354950,156.160858 281.906189,155.282318 
z"/>
<path fill="#F3960D" opacity="1.000000" stroke="none" 
	d="
M231.850464,186.700134 
	C233.494873,181.788025 235.078430,177.282181 236.661987,172.776352 
	C237.348099,172.891495 238.034210,173.006622 238.720337,173.121750 
	C239.701599,178.280167 240.682861,183.438568 241.741104,189.001648 
	C238.155991,189.777237 234.986496,190.462921 231.197647,191.282578 
	C231.449402,189.506531 231.619507,188.306473 231.850464,186.700134 
z"/>
<path fill="#3F2E81" opacity="1.000000" stroke="none" 
	d="
M167.048141,164.823486 
	C175.605988,168.909897 184.163818,172.996323 192.721664,177.082748 
	C192.615631,177.384689 192.509583,177.686630 192.403549,177.988571 
	C186.527817,176.994812 180.652100,176.001053 174.341919,175.054871 
	C170.330978,171.659790 166.754501,168.217133 163.413589,164.405289 
	C164.782135,164.298553 165.915131,164.561020 167.048141,164.823486 
z"/>
<path fill="#423184" opacity="1.000000" stroke="none" 
	d="
M192.148987,140.041031 
	C193.492966,138.111206 194.836945,136.181396 196.566742,134.467712 
	C198.894958,139.177383 200.837341,143.670914 202.779724,148.164429 
	C203.042450,150.812851 203.305176,153.461273 203.237091,156.124741 
	C199.320511,150.773529 195.734756,145.407288 192.148987,140.041031 
z"/>
<path fill="#E28D29" opacity="1.000000" stroke="none" 
	d="
M224.598969,159.854065 
	C224.509430,162.199112 224.011093,164.368713 223.226761,166.765411 
	C222.286469,158.225296 221.632172,149.458069 221.357971,139.981918 
	C222.208755,132.214890 222.679443,125.156776 223.413818,118.388756 
	C223.839951,121.157372 224.002426,123.635895 224.164886,126.114426 
	C224.173309,137.302490 224.181747,148.490540 224.598969,159.854065 
z"/>
<path fill="#3F2E81" opacity="1.000000" stroke="none" 
	d="
M202.792175,160.892715 
	C202.713181,161.241684 202.634186,161.590652 201.947174,161.960938 
	C196.634598,156.965317 191.930038,151.948364 187.225494,146.931412 
	C188.251465,145.311874 189.277435,143.692337 190.825775,142.201630 
	C195.162811,148.517883 198.977493,154.705292 202.792175,160.892715 
z"/>
<path fill="#3F2E81" opacity="1.000000" stroke="none" 
	d="
M199.966415,167.985931 
	C196.700485,165.186646 193.434570,162.387360 189.861084,159.330109 
	C189.553528,159.072159 189.541992,159.072952 189.240997,158.786652 
	C188.449570,158.334930 187.959106,158.169495 187.468658,158.004059 
	C186.909286,157.469040 186.349930,156.934021 185.517105,155.950989 
	C184.923737,155.291000 184.603806,155.078995 184.105408,154.579025 
	C182.940765,153.852203 181.954590,153.413345 180.968414,152.974472 
	C180.968414,152.974472 181.024429,152.979019 181.014374,152.687378 
	C180.903763,151.981262 180.803192,151.566818 180.702621,151.152359 
	C180.933472,151.117966 181.164307,151.083572 182.064178,151.023346 
	C183.174210,150.655991 183.615250,150.314499 184.056274,149.973022 
	C184.056274,149.973022 184.043289,150.055756 184.016815,150.087830 
	C184.443069,149.727814 184.895782,149.335739 185.904648,149.023666 
	C190.298798,153.811722 194.217987,158.457291 197.921677,163.268738 
	C198.935303,164.585526 199.302551,166.399902 199.966415,167.985931 
z"/>
<path fill="#E98F19" opacity="1.000000" stroke="none" 
	d="
M200.198914,167.996338 
	C199.302551,166.399902 198.935303,164.585526 197.921677,163.268738 
	C194.217987,158.457291 190.298798,153.811722 186.181870,148.886780 
	C186.190338,148.199707 186.477707,147.729538 186.995270,147.095398 
	C191.930038,151.948364 196.634598,156.965317 201.673035,162.078033 
	C201.709152,163.913712 201.411362,165.653625 201.005219,167.703156 
	C200.896866,168.012787 200.431427,168.006729 200.198914,167.996338 
z"/>
<path fill="#423184" opacity="1.000000" stroke="none" 
	d="
M223.150146,118.098671 
	C222.679443,125.156776 222.208755,132.214890 221.442566,139.546143 
	C219.014572,131.696457 219.436035,123.659767 222.334442,115.521515 
	C222.855453,116.265579 223.002792,117.182121 223.150146,118.098671 
z"/>
<path fill="#E98F19" opacity="1.000000" stroke="none" 
	d="
M262.105621,179.399384 
	C257.991302,181.334061 253.981583,183.562790 249.718491,185.079269 
	C247.590088,185.836380 244.627594,185.610260 247.354797,181.408508 
	C252.647430,180.513336 257.376526,179.956360 262.105621,179.399384 
z"/>
<path fill="#E4E3EF" opacity="1.000000" stroke="none" 
	d="
M162.248962,224.005920 
	C160.169540,224.011002 158.382401,224.011002 156.304382,224.011002 
	C156.304382,221.592392 156.304382,219.535141 156.304382,217.484741 
	C162.408173,216.542877 163.400726,217.180405 163.936401,222.725525 
	C163.485489,223.424011 163.013351,223.712418 162.248962,224.005920 
z"/>
<path fill="#423184" opacity="1.000000" stroke="none" 
	d="
M262.408936,179.290527 
	C257.376526,179.956360 252.647430,180.513336 247.492310,181.099106 
	C246.746964,181.046097 246.471878,180.887558 246.586914,180.400574 
	C252.394287,178.194702 257.855774,176.240524 263.317261,174.286362 
	C264.234070,174.958511 265.150909,175.630676 266.328308,176.493896 
	C264.705658,177.700012 263.708984,178.440842 262.408936,179.290527 
z"/>
<path fill="#E98F19" opacity="1.000000" stroke="none" 
	d="
M202.888397,160.485657 
	C198.977493,154.705292 195.162811,148.517883 191.120880,142.059845 
	C191.157211,141.311050 191.420807,140.832886 191.916687,140.197876 
	C195.734756,145.407288 199.320511,150.773529 203.062164,156.428955 
	C203.140259,157.838287 203.062439,158.958450 202.888397,160.485657 
z"/>
<path fill="#E28D29" opacity="1.000000" stroke="none" 
	d="
M281.580811,155.360580 
	C281.354950,156.160858 281.013000,157.408203 280.218933,157.858856 
	C274.528961,161.088226 268.747040,164.155518 262.682617,167.442780 
	C262.056946,166.971466 261.742981,166.331665 261.399872,165.474396 
	C267.998962,161.984222 274.627167,158.711533 281.580811,155.360580 
z"/>
<path fill="#E68D23" opacity="1.000000" stroke="none" 
	d="
M255.683929,152.408508 
	C261.855896,146.100693 268.089417,140.065598 274.322937,134.030487 
	C274.651947,134.346863 274.980988,134.663223 275.309998,134.979599 
	C269.197083,141.229431 263.084167,147.479279 256.687561,153.969940 
	C256.184387,153.700912 255.964951,153.191071 255.683929,152.408508 
z"/>
<path fill="#4C3580" opacity="1.000000" stroke="none" 
	d="
M259.412842,168.867203 
	C260.246338,169.930191 261.079865,170.993195 261.574188,172.453857 
	C256.210724,174.445297 251.186447,176.039062 246.162140,177.632828 
	C246.074142,177.303482 245.986145,176.974136 246.292908,176.312683 
	C250.929382,173.609467 255.171112,171.238327 259.412842,168.867203 
z"/>
<path fill="#EC9012" opacity="1.000000" stroke="none" 
	d="
M246.060684,178.053497 
	C251.186447,176.039062 256.210724,174.445297 261.614807,172.745880 
	C262.334351,172.968521 262.674072,173.296814 263.165527,173.955719 
	C257.855774,176.240524 252.394287,178.194702 246.545288,180.164246 
	C246.091599,179.611130 246.025406,179.042648 246.060684,178.053497 
z"/>
<path fill="#E28D29" opacity="1.000000" stroke="none" 
	d="
M195.605988,182.172714 
	C196.520309,182.203644 197.434616,182.234573 198.611145,182.155685 
	C198.431244,183.932922 197.989136,185.819962 197.363510,188.490356 
	C193.107437,186.486969 189.310699,184.699799 185.658081,182.621765 
	C189.070129,182.278168 192.338058,182.225433 195.605988,182.172714 
z"/>
<path fill="#E68D23" opacity="1.000000" stroke="none" 
	d="
M277.039948,146.981842 
	C271.397339,151.567719 265.754730,156.153595 259.816895,160.960052 
	C259.283264,160.652130 259.044891,160.123611 258.759857,159.303619 
	C264.573761,154.997482 270.434326,150.982834 276.646240,146.983719 
	C276.997559,146.999252 277.039948,146.981857 277.039948,146.981842 
z"/>
<path fill="#E28D29" opacity="1.000000" stroke="none" 
	d="
M251.017487,145.604431 
	C255.129196,140.131012 259.337982,134.889847 263.546783,129.648666 
	C263.918304,129.899353 264.289825,130.150024 264.661346,130.400711 
	C260.764740,135.851486 256.868134,141.302277 252.716980,147.034149 
	C252.013168,146.822403 251.563873,146.329559 251.017487,145.604431 
z"/>
<path fill="#E98F19" opacity="1.000000" stroke="none" 
	d="
M259.316071,168.580658 
	C255.171112,171.238327 250.929382,173.609467 246.337830,176.059540 
	C245.901184,175.390396 245.814392,174.642349 246.125854,173.393448 
	C250.359665,170.933487 254.195251,168.974365 258.030823,167.015228 
	C258.426971,167.441513 258.823151,167.867798 259.316071,168.580658 
z"/>
<path fill="#E68D23" opacity="1.000000" stroke="none" 
	d="
M202.861191,147.758972 
	C200.837341,143.670914 198.894958,139.177383 196.852585,134.321045 
	C201.023788,132.798019 201.181534,136.754044 201.986526,138.848328 
	C202.977020,141.425171 202.682037,144.496140 202.861191,147.758972 
z"/>
<path fill="#423184" opacity="1.000000" stroke="none" 
	d="
M258.008484,166.714050 
	C254.195251,168.974365 250.359665,170.933487 246.181213,173.018188 
	C245.814545,172.570419 245.790726,171.997101 246.207520,171.109314 
	C249.629395,168.477325 252.610672,166.159775 255.591949,163.842224 
	C256.390015,164.699112 257.188110,165.555984 258.008484,166.714050 
z"/>
<path fill="#4C3580" opacity="1.000000" stroke="none" 
	d="
M246.211609,167.401428 
	C247.167389,164.918121 247.668869,162.095383 249.202011,160.043488 
	C250.857086,157.828400 252.852188,158.967239 253.942566,161.728104 
	C251.256866,164.008575 248.734253,165.705002 246.211609,167.401428 
z"/>
<path fill="#4C3580" opacity="1.000000" stroke="none" 
	d="
M195.232742,182.141357 
	C192.338058,182.225433 189.070129,182.278168 185.410797,182.414734 
	C182.753418,181.258530 180.487427,180.018478 178.073181,178.474258 
	C183.569778,179.483398 189.214645,180.796707 195.232742,182.141357 
z"/>
<path fill="#C8805D" opacity="1.000000" stroke="none" 
	d="
M223.413818,118.388756 
	C223.002792,117.182121 222.855453,116.265579 222.431122,115.135376 
	C222.701599,111.821121 223.249054,108.720520 223.960556,105.247322 
	C224.293655,111.724014 224.462692,118.573311 224.398315,125.768509 
	C224.002426,123.635895 223.839951,121.157372 223.413818,118.388756 
z"/>
<path fill="#E98F19" opacity="1.000000" stroke="none" 
	d="
M246.096588,167.747101 
	C248.734253,165.705002 251.256866,164.008575 254.052124,162.082230 
	C254.718140,162.312073 255.111526,162.771820 255.548431,163.536896 
	C252.610672,166.159775 249.629395,168.477325 246.329041,170.907791 
	C246.000488,170.044739 245.991028,169.068756 246.096588,167.747101 
z"/>
<path fill="#3E2E82" opacity="1.000000" stroke="none" 
	d="
M150.245850,142.293121 
	C153.089981,143.847214 155.946503,145.712082 158.803024,147.576950 
	C158.653671,147.800064 158.504318,148.023178 158.354950,148.246307 
	C156.672684,148.031097 154.990402,147.815903 153.111115,147.877365 
	C152.028793,146.303986 151.143524,144.453949 150.245850,142.293121 
z"/>
<path fill="#E98F19" opacity="1.000000" stroke="none" 
	d="
M167.221207,164.592331 
	C165.915131,164.561020 164.782135,164.298553 163.297241,164.095566 
	C162.229080,163.327408 161.512802,162.499802 160.870071,161.345459 
	C163.264282,161.776016 165.584946,162.533279 168.159912,163.560089 
	C168.074249,164.006805 167.734268,164.183990 167.221207,164.592331 
z"/>
<path fill="#F9F7F8" opacity="1.000000" stroke="none" 
	d="
M238.997406,139.490707 
	C239.374725,138.646912 239.760925,138.152206 240.206207,137.322708 
	C240.897430,138.459671 241.529541,139.931442 242.161652,141.403198 
	C241.670395,141.646133 241.179123,141.889069 240.687866,142.132004 
	C240.127335,141.367935 239.566803,140.603867 238.997406,139.490707 
z"/>
<path fill="#392C83" opacity="1.000000" stroke="none" 
	d="
M293.461121,136.835236 
	C292.661682,136.812927 292.086060,136.557449 291.510468,136.301971 
	C292.119568,135.628189 292.728668,134.954391 293.630951,134.163239 
	C293.844421,134.897934 293.764709,135.750000 293.461121,136.835236 
z"/>
<path fill="#F9F7F8" opacity="1.000000" stroke="none" 
	d="
M245.540802,140.989883 
	C245.698593,141.441589 245.520111,141.899963 245.284668,142.622803 
	C244.642258,142.588516 244.056824,142.289764 243.471375,141.991013 
	C244.049088,141.659515 244.626801,141.328033 245.540802,140.989883 
z"/>
<path fill="#F9F7F8" opacity="1.000000" stroke="none" 
	d="
M241.175903,131.923248 
	C241.078964,131.449677 241.245468,130.787918 241.665588,130.023132 
	C241.759247,130.525085 241.599304,131.130066 241.175903,131.923248 
z"/>
<path fill="#F9F7F8" opacity="1.000000" stroke="none" 
	d="
M243.732834,127.090530 
	C243.821259,126.908005 244.103439,126.689079 244.651535,126.466377 
	C244.587158,126.659782 244.256866,126.856964 243.732834,127.090530 
z"/>
<path fill="#E98F19" opacity="1.000000" stroke="none" 
	d="
M200.481049,174.398651 
	C200.274704,173.940414 200.332291,173.236465 200.641479,172.278717 
	C200.843689,172.734268 200.794327,173.443604 200.481049,174.398651 
z"/>
<path fill="#E98F19" opacity="1.000000" stroke="none" 
	d="
M160.000092,160.491425 
	C160.274414,160.311096 160.623154,160.397644 160.982468,160.771530 
	C160.686874,160.958679 160.380676,160.858475 160.000092,160.491425 
z"/>
<path fill="#E4E3EF" opacity="1.000000" stroke="none" 
	d="
M156.921722,235.652313 
	C156.713501,235.721390 156.415222,235.614212 156.169327,235.247894 
	C156.478943,235.083725 156.682266,235.246155 156.921722,235.652313 
z"/>
<path fill="#F4F1F5" opacity="1.000000" stroke="none" 
	d="
M202.874878,112.937195 
	C198.537521,109.602997 197.095993,102.465668 199.916183,99.779236 
	C200.506210,99.217201 201.449493,98.231674 201.840271,98.391876 
	C203.562988,99.098152 206.207962,99.852562 206.569656,101.138008 
	C207.545135,104.604767 207.654434,108.350113 207.692841,111.989281 
	C207.696503,112.335495 204.786469,112.712440 202.874878,112.937195 
z"/>
<path fill="#EFEEF6" opacity="1.000000" stroke="none" 
	d="
M221.451370,65.676849 
	C218.954651,65.457924 216.842834,65.182472 214.702118,64.903244 
	C214.420517,63.583626 213.957870,61.415676 213.466492,59.113037 
	C214.692566,58.214916 216.687164,56.753834 218.352081,55.534248 
	C219.717987,56.651104 221.479782,58.091667 222.868042,59.226807 
	C222.556946,61.154583 222.196609,63.387451 221.451370,65.676849 
z"/>
<path fill="#EFEEF6" opacity="1.000000" stroke="none" 
	d="
M207.349854,77.401382 
	C204.337387,78.948692 201.624512,80.284332 198.911621,81.619972 
	C198.679367,81.200073 198.447113,80.780182 198.214874,80.360283 
	C200.981491,78.507423 203.778107,76.697433 206.506226,74.789528 
	C209.181320,72.918716 211.786743,70.948303 214.422745,69.021606 
	C214.764282,69.380135 215.105820,69.738663 215.447372,70.097191 
	C212.848053,72.461357 210.248749,74.825531 207.349854,77.401382 
z"/>
<path fill="#EFEEF6" opacity="1.000000" stroke="none" 
	d="
M193.805481,75.886230 
	C192.153519,76.471497 190.842987,76.904633 189.532455,77.337776 
	C189.404724,77.055428 189.276993,76.773087 189.149261,76.490738 
	C194.292557,72.896370 199.435837,69.302002 205.005554,65.409622 
	C203.411453,70.027435 201.301132,71.952835 193.805481,75.886230 
z"/>
<path fill="#E98F19" opacity="1.000000" stroke="none" 
	d="
M178.184418,159.548859 
	C178.049805,160.032242 177.699509,160.236984 177.183243,160.699219 
	C172.068954,157.851562 167.120621,154.746445 162.322906,151.255463 
	C162.652237,150.830978 162.830948,150.792343 163.009674,150.753723 
	C167.996033,153.592545 172.982376,156.431381 178.184418,159.548859 
z"/>
<path fill="#E4E3EF" opacity="1.000000" stroke="none" 
	d="
M250.330154,79.964073 
	C248.312744,79.369362 246.572983,78.586693 244.286865,77.558235 
	C246.296127,75.639503 247.413391,74.572563 249.406845,72.668922 
	C249.876831,75.450249 250.242310,77.613182 250.330154,79.964073 
z"/>
<path fill="#E98F19" opacity="1.000000" stroke="none" 
	d="
M177.957794,149.650024 
	C175.923447,148.720306 173.660889,147.535965 171.623749,146.043915 
	C169.915848,144.793030 168.470978,143.182983 166.909653,141.731964 
	C167.211670,141.355682 167.513672,140.979385 167.815689,140.603104 
	C171.152878,143.489441 174.490051,146.375793 177.957794,149.650024 
z"/>
<path fill="#392C83" opacity="1.000000" stroke="none" 
	d="
M277.008270,146.978790 
	C277.860474,145.934967 278.701996,144.911621 279.543488,143.888275 
	C279.962524,144.313446 280.381531,144.738602 280.800537,145.163757 
	C279.776215,145.750854 278.751862,146.337967 277.383728,146.953461 
	C277.039948,146.981857 276.997559,146.999252 277.008270,146.978790 
z"/>
<path fill="#382B83" opacity="1.000000" stroke="none" 
	d="
M159.172058,135.265656 
	C158.295502,134.500427 157.709747,133.788589 157.123978,133.076736 
	C157.541977,132.787323 157.959961,132.497925 158.377960,132.208511 
	C158.739594,133.245361 159.101227,134.282196 159.172058,135.265656 
z"/>
<path fill="#3E2E82" opacity="1.000000" stroke="none" 
	d="
M192.828217,172.312973 
	C194.036652,172.691132 195.113419,173.292694 196.508362,174.240234 
	C196.576416,174.824463 196.326309,175.062698 196.076218,175.300934 
	C194.812683,174.737732 193.549164,174.174545 192.058075,173.352219 
	C192.119186,172.907501 192.407867,172.721939 192.828217,172.312973 
z"/>
<path fill="#382B83" opacity="1.000000" stroke="none" 
	d="
M149.896667,126.350494 
	C150.890518,126.468414 151.671463,126.781235 152.452423,127.094063 
	C152.278351,127.415436 152.104279,127.736809 151.930206,128.058182 
	C151.181381,127.553925 150.432571,127.049667 149.896667,126.350494 
z"/>
<path fill="#E98F19" opacity="1.000000" stroke="none" 
	d="
M180.686829,153.237595 
	C181.954590,153.413345 182.940765,153.852203 183.830048,154.710358 
	C183.481583,155.441544 183.229980,155.753448 182.978378,156.065353 
	C182.120667,155.210480 181.262955,154.355606 180.686829,153.237595 
z"/>
<path fill="#3E2E82" opacity="1.000000" stroke="none" 
	d="
M162.982086,150.506500 
	C162.830948,150.792343 162.652237,150.830978 162.205414,150.927612 
	C161.392654,150.834152 160.848007,150.682693 160.303345,150.531250 
	C160.385742,150.219574 160.468140,149.907913 160.550537,149.596237 
	C161.351868,149.817245 162.153183,150.038269 162.982086,150.506500 
z"/>
<path fill="#392C83" opacity="1.000000" stroke="none" 
	d="
M287.950195,139.614258 
	C287.704956,139.212982 287.706451,138.813614 287.736145,138.416367 
	C287.736938,138.406082 288.190338,138.411240 288.190887,138.421982 
	C288.211945,138.819199 288.204346,139.217926 287.950195,139.614258 
z"/>
<path fill="#382B83" opacity="1.000000" stroke="none" 
	d="
M193.942947,167.104889 
	C194.711960,167.308014 195.346268,167.770279 195.881592,168.724670 
	C195.648422,169.380203 195.514267,169.543579 195.380112,169.706940 
	C194.661041,169.328339 193.941956,168.949738 193.055099,168.316162 
	C193.194305,167.828796 193.501266,167.596420 193.942947,167.104889 
z"/>
<path fill="#E98F19" opacity="1.000000" stroke="none" 
	d="
M180.316620,151.005554 
	C180.803192,151.566818 180.903763,151.981262 181.016251,152.715408 
	C180.016251,152.391983 179.004333,151.748856 177.992416,151.105743 
	C178.638489,151.023422 179.284546,150.941101 180.316620,151.005554 
z"/>
<path fill="#EC9012" opacity="1.000000" stroke="none" 
	d="
M183.204773,156.418091 
	C183.229980,155.753448 183.481583,155.441544 184.008514,154.998322 
	C184.603806,155.078995 184.923737,155.291000 185.387848,155.757339 
	C184.831741,156.264740 184.131454,156.517792 183.204773,156.418091 
z"/>
<path fill="#392C83" opacity="1.000000" stroke="none" 
	d="
M284.889069,141.706696 
	C284.594604,141.790024 284.204285,141.698730 284.119751,141.485962 
	C284.051178,141.313431 284.350006,140.994949 284.485901,140.741211 
	C284.632385,140.987320 284.778900,141.233444 284.889069,141.706696 
z"/>
<path fill="#382B83" opacity="1.000000" stroke="none" 
	d="
M165.237473,139.010880 
	C165.407150,138.898590 165.578659,138.953598 165.750153,139.008621 
	C165.579865,139.065140 165.409576,139.121674 165.237473,139.010880 
z"/>
<path fill="#FFFFFF" opacity="1.000000" stroke="none" 
	d="
M183.794586,149.692627 
	C183.615250,150.314499 183.174210,150.655991 182.411942,150.983246 
	C182.571426,150.450089 183.052170,149.931168 183.794586,149.692627 
z"/>
<path fill="#EC9012" opacity="1.000000" stroke="none" 
	d="
M187.478577,158.619110 
	C187.959106,158.169495 188.449570,158.334930 189.248047,158.753143 
	C188.866882,159.082001 188.177704,159.158081 187.478577,158.619110 
z"/>
<path fill="#EFEEF6" opacity="1.000000" stroke="none" 
	d="
M260.083740,234.070496 
	C258.126160,233.958389 254.984879,233.535080 254.993179,233.186813 
	C255.062454,230.280396 255.711441,227.387772 256.185547,224.490997 
	C257.770172,225.132278 260.505219,225.521805 260.711578,226.464706 
	C261.216431,228.771683 260.553070,231.334335 260.083740,234.070496 
z"/>
<path fill="#F4F1F5" opacity="1.000000" stroke="none" 
	d="
M226.228973,234.579102 
	C225.589294,231.779861 225.100006,229.178497 225.289902,226.627701 
	C225.319778,226.226120 228.425064,226.053482 230.108368,225.774994 
	C230.328461,228.220932 230.884872,230.711731 230.568039,233.086029 
	C230.470306,233.818558 227.991714,234.233383 226.228973,234.579102 
z"/>
<path fill="#E98F19" opacity="1.000000" stroke="none" 
	d="
M196.270813,175.476685 
	C196.326309,175.062698 196.576416,174.824463 196.809448,174.320969 
	C197.068100,174.483658 197.343811,174.911606 197.619537,175.339554 
	C197.234833,175.443848 196.850113,175.548141 196.270813,175.476685 
z"/>
<path fill="#E98F19" opacity="1.000000" stroke="none" 
	d="
M197.213791,169.988861 
	C197.621353,170.467667 198.028931,170.946472 198.436493,171.425278 
	C198.035461,171.426971 197.634430,171.428650 197.171722,170.965561 
	C197.144638,170.330154 197.179214,170.159515 197.213791,169.988861 
z"/>
<path fill="#382B83" opacity="1.000000" stroke="none" 
	d="
M197.093338,169.749466 
	C197.179214,170.159515 197.144638,170.330154 197.045990,170.754120 
	C196.560349,170.709579 196.138763,170.411713 195.548645,169.910400 
	C195.514267,169.543579 195.648422,169.380203 196.009460,168.995056 
	C196.481857,169.018875 196.727371,169.264465 197.093338,169.749466 
z"/>
<path fill="#3F2E81" opacity="1.000000" stroke="none" 
	d="
M190.999863,162.988007 
	C190.988358,162.978638 191.172974,162.929688 191.172974,162.929688 
	C191.172974,162.929688 190.947311,162.902542 190.991638,162.959534 
	C191.035980,163.016541 191.011368,162.997375 190.999863,162.988007 
z"/>
</svg>