<svg id="SvgjsSvg1001" width="100%" height="100%" xmlns="http://www.w3.org/2000/svg" version="1.1" xlink="http://www.w3.org/1999/xlink" xmlns:svgjs="http://svgjs.com/svgjs" preserveAspectRatio="xMidYMid meet" viewBox="0 -1.2275960159513488e-7 159.49697875976562 147.00001525878906" overflow="visible"><defs id="SvgjsDefs1002"></defs><g id="SvgjsG1008" transform="scale(0.4444545994974624)" opacity="1"><g id="SvgjsG1009" class="mh30aHE7t" transform="translate(49.64732238720465, -4.184370765553968) scale(2.595763712592602)" light-content="false" non-strokable="false" fill="#08e769"><path d="M53.402 59.234v-2.266H80.14a2.365 2.365 0 0 1 2.36 2.36v14.336a6.261 6.261 0 0 1 5.105 6.73 6.263 6.263 0 0 1-6.238 5.696 6.263 6.263 0 0 1-6.239-5.696 6.261 6.261 0 0 1 5.102-6.73V59.328c0-.051-.04-.09-.09-.094zm0 8.102h12.844c.05.004.09.043.09.093v14.336a6.268 6.268 0 0 0-5.106 6.73 6.267 6.267 0 0 0 12.48 0 6.264 6.264 0 0 0-5.105-6.73V67.43a2.367 2.367 0 0 0-2.36-2.36H53.403v2.27zm0-32.406v-2.27l12.844.004a.094.094 0 0 0 .09-.094V18.234a6.268 6.268 0 0 1-5.106-6.73 6.267 6.267 0 0 1 12.48 0 6.264 6.264 0 0 1-5.105 6.73V32.57a2.367 2.367 0 0 1-2.36 2.36zm0 8.101H80.14a2.365 2.365 0 0 0 2.36-2.36V26.337a6.261 6.261 0 0 0 5.105-6.73 6.263 6.263 0 0 0-6.238-5.696 6.263 6.263 0 0 0-6.239 5.695 6.261 6.261 0 0 0 5.102 6.73v14.337c0 .05-.04.09-.09.094H53.402zm-2.27 5.832v19.051c0 .625-.507 1.133-1.132 1.133a19.045 19.045 0 0 1-16.496-28.57A19.046 19.046 0 0 1 50 30.953c.625 0 1.132.508 1.132 1.133v16.781zm40.985-5.133l.003.004a6.271 6.271 0 0 0-6.16 5.133H53.401v2.27l32.56-.004a6.256 6.256 0 0 0 4.573 4.925 6.263 6.263 0 0 0 7.258-8.718 6.266 6.266 0 0 0-5.672-3.606zM4.267 60.046l7.536.926a39.41 39.41 0 0 0 3.43 8.277l-4.676 5.985a3.03 3.03 0 0 0 .246 4l9.96 9.96a3.03 3.03 0 0 0 4 .247l5.989-4.676a39.706 39.706 0 0 0 8.277 3.43l.926 7.539.004-.004a3.021 3.021 0 0 0 2.996 2.656h7.043c.625 0 1.133-.508 1.133-1.133V72.827c0-.625-.508-1.132-1.133-1.132a21.697 21.697 0 0 1 0-43.391c.625 0 1.133-.508 1.133-1.133V2.745c0-.625-.508-1.133-1.133-1.133h-7.043a3.029 3.029 0 0 0-3.004 2.656l-.922 7.535a39.707 39.707 0 0 0-8.277 3.43l-5.988-4.676a3.03 3.03 0 0 0-4 .246l-9.961 9.961a3.03 3.03 0 0 0-.246 4l4.675 5.989a39.497 39.497 0 0 0-3.43 8.277l-7.534.926v.004a3.021 3.021 0 0 0-2.657 2.996v14.086a3.029 3.029 0 0 0 2.657 3.004z" fill-rule="evenodd"></path></g><g id="SvgjsG1010" class="text" transform="translate(177.57000732421875, 330.1724441298563) scale(1)" light-content="false" fill="#2b2b2b"><path d="M-167.43 -7.86L-167.43 -18.78L-147.33 -18.78L-147.33 -26.64L-167.43 -26.64L-167.43 -36.54L-144.24 -36.54L-144.24 -44.4L-177.57 -44.4L-177.57 0L-143.94 0L-143.94 -7.86Z M-114.66 -23.13L-99.21 -44.4L-110.28 -44.4L-120.57 -30.06L-130.89 -44.4L-142.32 -44.4L-126.69 -22.98L-143.4 0L-132.24 0L-120.75 -16.08L-109.26 0L-97.83 0Z M-94.53 -43.59L-94.53 0L-84.27 0L-84.27 -12.99L-83.1 -12.93C-82.74 -12.91 -82.21 -12.89 -81.51 -12.87C-80.81 -12.85 -80.2 -12.84 -79.68 -12.84C-72.98 -12.84 -67.95 -14.19 -64.57 -16.89C-61.2 -19.59 -59.52 -23.6 -59.52 -28.92C-59.52 -34.42 -61.24 -38.46 -64.68 -41.05C-68.12 -43.65 -73.33 -44.94 -80.31 -44.94C-85.07 -44.94 -89.81 -44.49 -94.53 -43.59ZM-73.8 -21.1C-75.28 -20.51 -77.2 -20.22 -79.56 -20.22C-81.38 -20.22 -82.95 -20.32 -84.27 -20.52L-84.27 -37.2C-82.79 -37.46 -81.16 -37.59 -79.38 -37.59C-75.96 -37.59 -73.45 -36.9 -71.85 -35.5C-70.25 -34.12 -69.45 -31.9 -69.45 -28.86C-69.45 -26.8 -69.8 -25.14 -70.51 -23.88C-71.23 -22.62 -72.32 -21.7 -73.8 -21.1Z M-43.83 -2.01C-40.47 -0.29 -36.48 0.57 -31.86 0.57C-27.26 0.57 -23.28 -0.29 -19.9 -2.02C-16.53 -3.76 -13.94 -6.33 -12.12 -9.73C-10.3 -13.14 -9.39 -17.3 -9.39 -22.2C-9.39 -27.1 -10.3 -31.25 -12.12 -34.66C-13.94 -38.07 -16.53 -40.64 -19.89 -42.37C-23.25 -44.1 -27.24 -44.97 -31.86 -44.97C-36.48 -44.97 -40.47 -44.11 -43.83 -42.39C-47.19 -40.67 -49.78 -38.1 -51.6 -34.69C-53.42 -31.29 -54.33 -27.12 -54.33 -22.2C-54.33 -17.28 -53.42 -13.11 -51.6 -9.7C-49.78 -6.3 -47.19 -3.73 -43.83 -2.01ZM-22.95 -11.1C-25.01 -8.74 -27.98 -7.56 -31.86 -7.56C-35.76 -7.56 -38.74 -8.75 -40.78 -11.13C-42.84 -13.51 -43.86 -17.27 -43.86 -22.41C-43.86 -27.33 -42.82 -30.96 -40.74 -33.31C-38.66 -35.67 -35.7 -36.84 -31.86 -36.84C-28 -36.84 -25.03 -35.64 -22.96 -33.22C-20.89 -30.81 -19.86 -27.07 -19.86 -21.99C-19.86 -17.09 -20.89 -13.46 -22.95 -11.1Z M28.77 -44.4L28.77 -14.52L8.01 -44.4L-2.31 -44.4L-2.31 0L7.35 0L7.35 -29.88L28.11 0L38.43 0L38.43 -44.4Z M56.01 -2.01C59.37 -0.29 63.36 0.57 67.98 0.57C72.58 0.57 76.56 -0.29 79.93 -2.02C83.31 -3.76 85.9 -6.33 87.72 -9.73C89.54 -13.14 90.45 -17.3 90.45 -22.2C90.45 -27.1 89.54 -31.25 87.72 -34.66C85.9 -38.07 83.31 -40.64 79.95 -42.37C76.59 -44.1 72.6 -44.97 67.98 -44.97C63.36 -44.97 59.37 -44.11 56.01 -42.39C52.65 -40.67 50.06 -38.1 48.24 -34.69C46.42 -31.29 45.51 -27.12 45.51 -22.2C45.51 -17.28 46.42 -13.11 48.24 -9.7C50.06 -6.3 52.65 -3.73 56.01 -2.01ZM76.89 -11.1C74.83 -8.74 71.86 -7.56 67.98 -7.56C64.08 -7.56 61.1 -8.75 59.05 -11.13C57 -13.51 55.98 -17.27 55.98 -22.41C55.98 -27.33 57.02 -30.96 59.1 -33.31C61.18 -35.67 64.14 -36.84 67.98 -36.84C71.84 -36.84 74.8 -35.64 76.87 -33.22C78.94 -30.81 79.98 -27.07 79.98 -21.99C79.98 -17.09 78.95 -13.46 76.89 -11.1Z M127.77 -44.4L115.2 -7.74L102.84 -44.4L92.04 -44.4L107.49 0L122.4 0L137.85 -44.4Z M171.21 0L181.29 0L165.78 -44.4L150.99 -44.4L135.48 0L145.47 0L149.43 -11.82L167.25 -11.82ZM152.04 -19.65L158.34 -38.46L164.64 -19.65Z"></path></g></g></svg>